<?xml version="1.0" standalone="no"?>
<!DOCTYPE svg PUBLIC "-//W3C//DTD SVG 20010904//EN"
 "http://www.w3.org/TR/2001/REC-SVG-20010904/DTD/svg10.dtd">
<svg version="1.0" xmlns="http://www.w3.org/2000/svg"
 width="500.000000pt" height="500.000000pt" viewBox="0 0 500.000000 500.000000"
 preserveAspectRatio="xMidYMid meet">

<g transform="translate(0.000000,500.000000) scale(0.100000,-0.100000)"
fill="#000000" stroke="none">
<path d="M4161 4755 c-152 -271 -375 -517 -591 -652 -149 -93 -224 -122 -574
-224 -350 -103 -501 -180 -637 -327 -83 -91 -145 -210 -180 -347 -21 -80 -23
-113 -23 -300 0 -198 5 -267 39 -545 26 -206 55 -655 55 -839 0 -179 -17 -364
-43 -451 l-13 -44 -23 64 c-78 212 -259 382 -491 460 -93 31 -244 38 -344 16
-336 -75 -572 -391 -553 -741 11 -193 73 -332 212 -470 101 -101 187 -150 325
-187 108 -28 277 -34 364 -14 106 25 216 89 297 172 80 81 103 113 152 209
118 233 165 497 187 1058 11 293 28 430 72 567 84 266 305 497 582 608 100 41
156 55 336 86 250 44 339 76 452 162 102 79 180 184 250 339 74 163 111 296
163 585 20 113 36 352 42 613 3 163 4 297 2 297 -2 0 -28 -43 -58 -95z"/>
</g>
</svg>
